<svg width="34" height="39" viewBox="0 0 34 39" fill="none" xmlns="http://www.w3.org/2000/svg">
<g filter="url(#filter0_d_52_162)">
<circle cx="17" cy="20" r="7" transform="rotate(-180 17 20)" fill="#7E869E" fill-opacity="0.25"/>
<path d="M18 15V19.25C18 19.9404 18.5596 20.5 19.25 20.5V20.5C19.9404 20.5 20.5 19.9404 20.5 19.25V19.25C20.5 18.5596 19.9404 18 19.25 18H14.75C14.0596 18 13.5 18.5596 13.5 19.25V19.25C13.5 19.9404 14.0596 20.5 14.75 20.5V20.5C15.4404 20.5 16 19.9404 16 19.25V15" stroke="white" stroke-linecap="round"/>
<path fill-rule="evenodd" clip-rule="evenodd" d="M14 12.4363C14 12.5465 14.115 12.6193 14.216 12.5755C15.0693 12.2052 16.0107 12 17 12C17.9893 12 18.9307 12.2052 19.784 12.5755C19.885 12.6193 20 12.5465 20 12.4363V10.5C20 9.11929 18.8807 8 17.5 8H16.5C15.1193 8 14 9.11929 14 10.5V12.4363Z" fill="white"/>
</g>
<defs>
<filter id="filter0_d_52_162" x="-6" y="-7" width="45" height="48" filterUnits="userSpaceOnUse" color-interpolation-filters="sRGB">
<feFlood flood-opacity="0" result="BackgroundImageFix"/>
<feColorMatrix in="SourceAlpha" type="matrix" values="0 0 0 0 0 0 0 0 0 0 0 0 0 0 0 0 0 0 127 0" result="hardAlpha"/>
<feOffset dy="2"/>
<feGaussianBlur stdDeviation="5"/>
<feComposite in2="hardAlpha" operator="out"/>
<feColorMatrix type="matrix" values="0 0 0 0 0.9375 0 0 0 0 0.748281 0 0 0 0 0.261719 0 0 0 0.78 0"/>
<feBlend mode="normal" in2="BackgroundImageFix" result="effect1_dropShadow_52_162"/>
<feBlend mode="normal" in="SourceGraphic" in2="effect1_dropShadow_52_162" result="shape"/>
</filter>
</defs>
</svg>
