<svg width="40" height="40" viewBox="0 0 40 40" fill="none" xmlns="http://www.w3.org/2000/svg">
<path fill-rule="evenodd" clip-rule="evenodd" d="M20 35C28.2843 35 35 28.2843 35 20C35 11.7157 28.2843 5 20 5C11.7157 5 5 11.7157 5 20C5 28.2843 11.7157 35 20 35ZM20 9C20.5523 9 21 9.44772 21 10V15C21 15.5523 20.5523 16 20 16C19.4477 16 19 15.5523 19 15V10C19 9.44772 19.4477 9 20 9ZM26.364 12.2218C26.7545 11.8313 27.3876 11.8313 27.7782 12.2218C29.3165 13.7602 30.3642 15.7202 30.7886 17.854C31.2131 19.9878 30.9952 22.1995 30.1627 24.2095C29.3301 26.2195 27.9202 27.9375 26.1113 29.1462C24.3023 30.3549 22.1756 31 20 31C17.8244 31 15.6977 30.3549 13.8887 29.1462C12.0798 27.9375 10.6699 26.2195 9.83732 24.2095C9.00476 22.1995 8.78692 19.9878 9.21136 17.854C9.63579 15.7202 10.6834 13.7602 12.2218 12.2218C12.6123 11.8313 13.2455 11.8313 13.636 12.2218C14.0266 12.6124 14.0266 13.2455 13.636 13.636C12.3774 14.8947 11.5202 16.4984 11.1729 18.2442C10.8257 19.99 11.0039 21.7996 11.6851 23.4442C12.3663 25.0887 13.5198 26.4943 14.9999 27.4832C16.4799 28.4722 18.22 29 20 29C21.78 29 23.5201 28.4722 25.0001 27.4832C26.4802 26.4943 27.6337 25.0887 28.3149 23.4441C28.9961 21.7996 29.1743 19.99 28.8271 18.2442C28.4798 16.4984 27.6226 14.8947 26.364 13.636C25.9734 13.2455 25.9734 12.6123 26.364 12.2218Z" fill="white"/>
</svg>
