<svg width="24" height="32" viewBox="0 0 24 32" fill="none" xmlns="http://www.w3.org/2000/svg">
<g filter="url(#filter0_d_139_80)">
<path d="M10 19L9.29289 18.2929L8.58579 19L9.29289 19.7071L10 19ZM13.2929 14.2929L9.29289 18.2929L10.7071 19.7071L14.7071 15.7071L13.2929 14.2929ZM9.29289 19.7071L13.2929 23.7071L14.7071 22.2929L10.7071 18.2929L9.29289 19.7071Z" fill="#999999"/>
<path d="M18.0622 8.5C18.6766 9.56414 19 10.7712 19 12C19 13.2288 18.6766 14.4359 18.0622 15.5C17.4478 16.5641 16.5641 17.4478 15.5 18.0622C14.4359 18.6766 13.2288 19 12 19" stroke="#999999" stroke-width="2" stroke-linecap="round"/>
<path d="M14 5L14.7071 5.70711L15.4142 5L14.7071 4.29289L14 5ZM10.7071 9.70711L14.7071 5.70711L13.2929 4.29289L9.29289 8.29289L10.7071 9.70711ZM14.7071 4.29289L10.7071 0.292893L9.29289 1.70711L13.2929 5.70711L14.7071 4.29289Z" fill="#999999"/>
<path d="M5.93782 15.5C5.32344 14.4359 5 13.2288 5 12C5 10.7712 5.32344 9.56413 5.93782 8.5C6.5522 7.43587 7.43587 6.5522 8.5 5.93782C9.56414 5.32344 10.7712 5 12 5" stroke="#999999" stroke-width="2" stroke-linecap="round"/>
</g>
<defs>
<filter id="filter0_d_139_80" x="-4" y="0" width="32" height="32" filterUnits="userSpaceOnUse" color-interpolation-filters="sRGB">
<feFlood flood-opacity="0" result="BackgroundImageFix"/>
<feColorMatrix in="SourceAlpha" type="matrix" values="0 0 0 0 0 0 0 0 0 0 0 0 0 0 0 0 0 0 127 0" result="hardAlpha"/>
<feOffset dy="4"/>
<feGaussianBlur stdDeviation="2"/>
<feComposite in2="hardAlpha" operator="out"/>
<feColorMatrix type="matrix" values="0 0 0 0 0 0 0 0 0 0 0 0 0 0 0 0 0 0 0.25 0"/>
<feBlend mode="normal" in2="BackgroundImageFix" result="effect1_dropShadow_139_80"/>
<feBlend mode="normal" in="SourceGraphic" in2="effect1_dropShadow_139_80" result="shape"/>
</filter>
</defs>
</svg>
