<svg width="28" height="28" viewBox="0 0 28 28" fill="none" xmlns="http://www.w3.org/2000/svg">
<path d="M12.0252 8.42324C12.7742 6.55577 13.1488 5.62203 13.7573 5.49262C13.9173 5.4586 14.0827 5.4586 14.2427 5.49262C14.8512 5.62203 15.2257 6.55577 15.9748 8.42324C16.4008 9.48523 16.6138 10.0162 17.0123 10.3774C17.1241 10.4787 17.2455 10.5689 17.3747 10.6468C17.8353 10.9244 18.4104 10.9759 19.5605 11.0789C21.5073 11.2533 22.4808 11.3405 22.7781 11.8955C22.8396 12.0104 22.8815 12.1349 22.9019 12.2637C23.0004 12.8856 22.2848 13.5366 20.8536 14.8388L20.4561 15.2004C19.787 15.8091 19.4524 16.1135 19.2589 16.4934C19.1428 16.7213 19.065 16.9667 19.0285 17.2198C18.9677 17.6418 19.0657 18.0833 19.2616 18.9665L19.3316 19.282C19.683 20.8658 19.8587 21.6577 19.6394 22.047C19.4424 22.3966 19.0795 22.6204 18.6786 22.6396C18.2324 22.6609 17.6035 22.1485 16.3459 21.1237C15.5173 20.4485 15.103 20.1109 14.6431 19.9791C14.2228 19.8586 13.7771 19.8586 13.3568 19.9791C12.8969 20.1109 12.4826 20.4485 11.6541 21.1237C10.3964 22.1485 9.76761 22.6609 9.32134 22.6396C8.92047 22.6204 8.55759 22.3966 8.36058 22.047C8.14125 21.6577 8.31695 20.8658 8.66834 19.282L8.73835 18.9665C8.9343 18.0833 9.03227 17.6418 8.97147 17.2198C8.935 16.9667 8.85717 16.7213 8.74108 16.4934C8.54756 16.1135 8.213 15.8091 7.54386 15.2004L7.14641 14.8388C5.71515 13.5366 4.99953 12.8856 5.09808 12.2637C5.11849 12.1349 5.16035 12.0104 5.22192 11.8955C5.51918 11.3405 6.49263 11.2533 8.43951 11.0789C9.5896 10.9759 10.1646 10.9244 10.6253 10.6468C10.7545 10.5689 10.8758 10.4787 10.9876 10.3774C11.3862 10.0162 11.5992 9.48523 12.0252 8.42324Z" fill="#EFC65F" stroke="#E3AC1D"/>
</svg>
